# xmcd
#
# Track frame offsets:
#	150
#	15856
#	35874
#	52333
#	66251
#	84152
#	102823
#	122939
#	140865
#	157038
#	176234
#	196772
#	213910
#	231393
#	247816
#	266778
#	280764
#	298506
#	314798
#	334803
#
# Disc length: 4665 seconds
#
# Revision: 1
# Processed by: cddbd v1.5PL3 Copyright (c) Steve Scherf et al.
# Submitted via: EasyCDDAExtractor 6.2.0.3
#
DISCID=37123714
DTITLE=Paixão Sertaneja - Coletânea
DYEAR=2004
DGENRE=Sertanejo
TTITLE0=Ligação Urbana - Bruno and Marrone
TTITLE1=Sufocado - Zezé di Camargo e Luciano
TTITLE2=Madrugada Triste - Rio Negro e Solimões
TTITLE3=Alma Transparente - Chico Rei e Parana
TTITLE4=Tua Sombra Em Meu Caminho - Leonardo
TTITLE5=Encontro Casual - Chitãizinho e Xororó
TTITLE6=Um milhão de fantasias - Daniel
TTITLE7=Hábito - Guilherme e Santiago
TTITLE8=Eu sem você - Rick e Renner
TTITLE9=Palavras ao vento - Roby e Roger
TTITLE10=Preciso de um tempo - Zeze di Camargo e Luciano
TTITLE11=No fim da estrada - Rio Negro e Solimões
TTITLE12=Feito Tatuagem - Leonardo
TTITLE13=Taça de Pranto - Gian e Giovani
TTITLE14=Um coração em um milhão - Daniel
TTITLE15=A noite do nosso amor - Chitãozinho e Xororó
TTITLE16=Quando o amor vira saudade - Cezar e Paulinho
TTITLE17=Menina - Bruno e Marrone
TTITLE18=Azul - Guilherme e Santiago
TTITLE19=Escravo do amor - Chrystian e Ralf
EXTD=
EXTT0=
EXTT1=
EXTT2=
EXTT3=
EXTT4=
EXTT5=
EXTT6=
EXTT7=
EXTT8=
EXTT9=
EXTT10=
EXTT11=
EXTT12=
EXTT13=
EXTT14=
EXTT15=
EXTT16=
EXTT17=
EXTT18=
EXTT19=
PLAYORDER=
